<svg width="60" height="83" viewBox="0 0 60 83" fill="none" xmlns="http://www.w3.org/2000/svg">
<path d="M59.9354 12.7504C59.8675 12.2481 59.5267 11.8258 59.0529 11.6533L44.4982 6.36096L40.6668 1.25331C40.2337 0.676233 39.4259 0.539083 38.8285 0.938282L30.6822 6.36908C30.3713 6.57544 30.1595 6.90129 30.097 7.2693C30.0345 7.63732 30.1242 8.01472 30.3482 8.31336L31.2973 9.57874L11.6729 22.6616C11.2955 22.9128 11.0688 23.3364 11.0688 23.7913V66.3013C5.85373 66.5239 0.660486 68.2809 0.207031 71.3112C0.207031 74.0267 0.207031 77.4209 0.207031 77.4209C0.207031 81.1724 7.8876 82.173 12.4264 82.173C16.9653 82.173 24.6458 81.1724 24.6458 77.4209C24.6458 77.4209 24.6458 72.6689 24.6458 71.3112C24.1924 68.2809 18.9991 66.5239 13.7841 66.3013V24.5178L32.9291 11.7539L34.1498 13.3817V29.2222C34.1498 29.7299 34.4322 30.1944 34.8829 30.4279C35.0798 30.5298 35.2944 30.58 35.5074 30.58C35.783 30.58 36.0573 30.4959 36.2909 30.3315L59.372 14.039C59.7847 13.747 60.0019 13.2501 59.9354 12.7504ZM21.9439 77.3409C21.6723 77.9438 18.4437 79.4575 12.4263 79.4575C6.40886 79.4575 3.18026 77.9436 2.92235 77.4209V74.9486C5.31325 76.1624 8.94375 76.7422 12.4263 76.7422C15.9129 76.7422 19.5474 76.1611 21.9385 74.9446L21.9439 77.3409ZM21.9304 71.5054C21.9304 72.1529 18.6623 74.0266 12.4264 74.0266C6.19056 74.0266 2.92235 72.1531 2.92235 71.5054C2.92235 70.9066 5.73822 69.2841 11.0686 69.0343V69.9534C11.0686 70.7028 11.6769 71.3111 12.4263 71.3111C13.1757 71.3111 13.7839 70.7028 13.7839 69.9534V69.0343C19.1145 69.2842 21.9304 70.9066 21.9304 71.5054ZM35.8225 11.0872L33.3813 7.83143L39.2643 3.90897L41.7054 7.16334L35.8225 11.0872ZM36.8651 26.6017V13.656L43.8356 9.00993L55.6842 13.3179L36.8651 26.6017Z" fill="white"/>
</svg>
